<svg width="92" height="45" viewBox="0 0 92 45" fill="none" xmlns="http://www.w3.org/2000/svg">
<g clip-path="url(#clip0_1019_33137)">
<path d="M56.3506 11.1899V34.0624H50.8418V11.1899H56.3506Z" fill="#DD1E88"/>
<path d="M59.1617 34.0624V11.1899H64.6705V29.5702H74.1544V34.0589H59.1582L59.1617 34.0624Z" fill="#DD1E88"/>
<path d="M77.0074 34.0624V11.1899H82.5162V29.5702H92.0001V34.0589H77.0039L77.0074 34.0624Z" fill="#DD1E88"/>
<path d="M40.1236 21.4126L48.2215 11.2181H41.7206L34.2489 20.7759C34.2489 20.7759 34.2595 11.0458 34.2595 11.0423C34.2595 4.8721 29.2572 0 23.0906 0C16.9239 0 11.9217 4.8721 11.9217 11.0423C11.9217 11.1056 11.9287 11.6508 11.9287 11.7282C11.8549 11.7282 11.1478 11.7282 11.1372 11.7282C4.98467 11.7458 0 16.8677 0 23.0237C0 29.1798 4.9917 34.0273 11.1407 34.0519H27.4843V28.5783H11.1372C8.03105 28.5642 5.51937 26.0068 5.51937 22.8971C5.51937 19.7874 8.04864 17.2511 11.1654 17.2511H17.4481L17.4586 17.2476L17.4481 10.9262C17.5149 7.86571 20.0125 5.40328 23.0871 5.40328C26.1616 5.40328 28.7331 7.93255 28.7331 11.0493L28.7577 34.0554H34.2489L34.2454 27.3963L36.0746 25.0887L41.7629 34.066H48.3657L40.1236 21.4196V21.4126Z" fill="#DD1E88"/>
<path d="M34.757 37.4873C34.5213 37.0757 34.1906 36.7556 33.7579 36.527C33.3253 36.2948 32.8152 36.1822 32.2207 36.1822H28.9527V44.0937H30.8663V41.6383H32.1644C32.7695 41.6383 33.2936 41.5257 33.7333 41.3006C34.173 41.0754 34.5143 40.7623 34.75 40.3508C34.9892 39.9427 35.1088 39.4643 35.1088 38.919C35.1088 38.3738 34.9927 37.8989 34.757 37.4873ZM32.977 39.5558C32.875 39.7387 32.7308 39.8794 32.5338 39.9779C32.3403 40.0799 32.0976 40.1291 31.8091 40.1291H30.8663V37.723H31.8091C32.094 37.723 32.3368 37.7722 32.5302 37.8707C32.7272 37.9692 32.875 38.1064 32.9735 38.2858C33.0755 38.4652 33.1247 38.6763 33.1247 38.9226C33.1247 39.1688 33.0755 39.3763 32.9735 39.5593L32.977 39.5558Z" fill="#DD1E88"/>
<path d="M40.7148 44.09H42.7692L40.0992 36.1786H37.5523L34.8824 44.09H36.9367L37.4574 42.4296H40.1907L40.7113 44.09H40.7148ZM37.9182 40.9768L38.7976 38.1731H38.861L39.7404 40.9768H37.9182Z" fill="#DD1E88"/>
<path d="M47.9616 44.09H50.0476L48.4048 41.0788C48.841 40.8783 49.1787 40.5898 49.4179 40.2099C49.6571 39.8265 49.7767 39.3621 49.7767 38.8134C49.7767 38.2646 49.6606 37.8038 49.425 37.4098C49.1893 37.0158 48.8586 36.7097 48.4259 36.4987C47.9932 36.2876 47.4832 36.1786 46.8887 36.1786H43.6207V44.09H45.5343V41.3813H46.5123L47.9581 44.09H47.9616ZM45.5378 37.7229H46.4806C46.7655 37.7229 47.0083 37.7651 47.2017 37.846C47.3987 37.9269 47.5465 38.0465 47.645 38.2083C47.747 38.3701 47.7962 38.5706 47.7962 38.8169C47.7962 39.0631 47.747 39.2636 47.645 39.4184C47.543 39.5732 47.3987 39.6893 47.2017 39.7667C47.0047 39.8441 46.7655 39.8792 46.4771 39.8792H45.5343V37.7229H45.5378Z" fill="#DD1E88"/>
<path d="M50.8257 44.09V36.1786H52.7394V39.5239H52.8449L55.4586 36.1786H57.71L54.9063 39.7104L57.7628 44.09H55.4762L53.5063 40.9803L52.7429 41.9477V44.09H50.8292H50.8257Z" fill="#DD1E88"/>
<path d="M60.3761 36.1786V44.09H58.4624V36.1786H60.3761Z" fill="#DD1E88"/>
<path d="M68.3068 36.1786V44.09H66.6851L63.5367 39.5239H63.4874V44.09H61.5738V36.1786H63.2201L66.3333 40.7376H66.4001V36.1786H68.3068Z" fill="#DD1E88"/>
<path d="M73.7792 38.5531C73.7546 38.2681 73.6385 38.05 73.438 37.8917C73.2375 37.7334 72.9491 37.6525 72.5762 37.6525C72.3299 37.6525 72.1224 37.6842 71.957 37.7475C71.7917 37.8108 71.6686 37.8988 71.5877 38.0113C71.5068 38.1239 71.4646 38.2505 71.461 38.3948C71.4575 38.5144 71.4786 38.6164 71.5314 38.7078C71.5842 38.7993 71.6616 38.8767 71.7636 38.9471C71.8656 39.0139 71.9887 39.0737 72.1329 39.1265C72.2772 39.1792 72.439 39.225 72.6184 39.2601L73.2973 39.4149C73.6878 39.4993 74.036 39.6119 74.3351 39.7561C74.6341 39.8969 74.8873 40.0657 75.0914 40.2627C75.2954 40.4597 75.4502 40.6848 75.5557 40.9381C75.6612 41.1914 75.714 41.4798 75.7175 41.7964C75.7175 42.296 75.5874 42.7251 75.3376 43.0839C75.0879 43.4428 74.729 43.7171 74.2612 43.9071C73.7933 44.0971 73.2305 44.192 72.5727 44.192C71.9148 44.192 71.3344 44.0935 70.8419 43.893C70.3494 43.696 69.966 43.3935 69.6951 42.989C69.4207 42.5844 69.28 42.0743 69.273 41.4552H71.1022C71.1163 41.7085 71.1867 41.9231 71.3063 42.0919C71.4259 42.2608 71.5947 42.3909 71.8058 42.4789C72.0168 42.5668 72.2631 42.609 72.5445 42.609C72.8013 42.609 73.0229 42.5739 73.2023 42.5035C73.3817 42.4332 73.5225 42.3382 73.6209 42.2151C73.7194 42.0919 73.7687 41.9512 73.7722 41.7894C73.7722 41.6417 73.723 41.5115 73.6315 41.406C73.54 41.3004 73.4028 41.2055 73.2164 41.1281C73.03 41.0507 72.7908 40.9768 72.5023 40.91L71.6756 40.7165C70.9897 40.5582 70.4514 40.3049 70.0575 39.9531C69.6635 39.6014 69.4665 39.1265 69.47 38.5249C69.47 38.036 69.6001 37.6068 69.864 37.2374C70.1278 36.8681 70.4972 36.5831 70.965 36.3756C71.4329 36.168 71.9676 36.066 72.5691 36.066C73.1707 36.066 73.7159 36.1715 74.1662 36.3756C74.62 36.5831 74.9682 36.8716 75.218 37.248C75.4678 37.6244 75.5944 38.0535 75.6014 38.546H73.7722L73.7792 38.5531Z" fill="#DD1E88"/>
<path d="M84.1518 40.1361C84.1518 41.005 83.9829 41.7437 83.6488 42.3488C83.3146 42.9538 82.8608 43.4147 82.2909 43.7277C81.721 44.0408 81.0808 44.1991 80.3737 44.1991C79.6667 44.1991 79.0229 44.0408 78.453 43.7242C77.8831 43.4076 77.4329 42.9468 77.0987 42.3417C76.7645 41.7367 76.5992 41.0015 76.5992 40.1361C76.5992 39.2707 76.7645 38.5285 77.0987 37.9234C77.4329 37.3184 77.8831 36.8575 78.453 36.5445C79.0229 36.2314 79.6631 36.0731 80.3737 36.0731C81.0843 36.0731 81.721 36.2314 82.2909 36.5445C82.8608 36.8575 83.3146 37.3184 83.6488 37.9234C83.9829 38.5285 84.1518 39.2672 84.1518 40.1361ZM82.1994 40.1361C82.1994 39.6225 82.1256 39.1863 81.9813 38.831C81.8371 38.4757 81.626 38.2049 81.3552 38.0219C81.0843 37.839 80.7572 37.7475 80.3772 37.7475C79.9973 37.7475 79.6737 37.839 79.3993 38.0219C79.1249 38.2049 78.9174 38.4722 78.7731 38.831C78.6289 39.1863 78.555 39.6225 78.555 40.1361C78.555 40.6497 78.6289 41.0859 78.7731 41.4412C78.9174 41.7965 79.1284 42.0674 79.3993 42.2503C79.6737 42.4332 79.9973 42.5247 80.3772 42.5247C80.7572 42.5247 81.0843 42.4332 81.3552 42.2503C81.626 42.0674 81.8371 41.8 81.9813 41.4412C82.1256 41.0824 82.1994 40.6497 82.1994 40.1361Z" fill="#DD1E88"/>
<path d="M92.0001 36.1786V44.09H90.3784L87.23 39.5239H87.1808V44.09H85.2671V36.1786H86.9134L90.0267 40.7376H90.0935V36.1786H92.0001Z" fill="#DD1E88"/>
</g>
<defs>
<clipPath id="clip0_1019_33137">
<rect width="92.0001" height="44.1991" fill="white"/>
</clipPath>
</defs>
</svg>
